<svg width="396" height="33" viewBox="0 0 396 33" fill="none" xmlns="http://www.w3.org/2000/svg">
<path d="M13.0156 21.0469C13.0156 20.6406 12.9531 20.276 12.8281 19.9531C12.7135 19.6198 12.4948 19.3177 12.1719 19.0469C11.849 18.7656 11.3958 18.4896 10.8125 18.2188C10.2292 17.9479 9.47396 17.6667 8.54688 17.375C7.51562 17.0417 6.53646 16.6667 5.60938 16.25C4.69271 15.8333 3.88021 15.349 3.17188 14.7969C2.47396 14.2344 1.92188 13.5833 1.51562 12.8438C1.11979 12.1042 0.921875 11.2448 0.921875 10.2656C0.921875 9.31771 1.13021 8.45833 1.54688 7.6875C1.96354 6.90625 2.54688 6.23958 3.29688 5.6875C4.04688 5.125 4.93229 4.69271 5.95312 4.39062C6.98438 4.08854 8.11458 3.9375 9.34375 3.9375C11.0208 3.9375 12.4844 4.23958 13.7344 4.84375C14.9844 5.44792 15.9531 6.27604 16.6406 7.32812C17.3385 8.38021 17.6875 9.58333 17.6875 10.9375H13.0312C13.0312 10.2708 12.8906 9.6875 12.6094 9.1875C12.3385 8.67708 11.9219 8.27604 11.3594 7.98438C10.8073 7.69271 10.1094 7.54688 9.26562 7.54688C8.45312 7.54688 7.77604 7.67188 7.23438 7.92188C6.69271 8.16146 6.28646 8.48958 6.01562 8.90625C5.74479 9.3125 5.60938 9.77083 5.60938 10.2812C5.60938 10.6667 5.70312 11.0156 5.89062 11.3281C6.08854 11.6406 6.38021 11.9323 6.76562 12.2031C7.15104 12.474 7.625 12.7292 8.1875 12.9688C8.75 13.2083 9.40104 13.4427 10.1406 13.6719C11.3802 14.0469 12.4688 14.4688 13.4062 14.9375C14.3542 15.4062 15.1458 15.9323 15.7812 16.5156C16.4167 17.099 16.8958 17.7604 17.2188 18.5C17.5417 19.2396 17.7031 20.0781 17.7031 21.0156C17.7031 22.0052 17.5104 22.8906 17.125 23.6719C16.7396 24.4531 16.1823 25.1146 15.4531 25.6562C14.724 26.1979 13.8542 26.6094 12.8438 26.8906C11.8333 27.1719 10.7031 27.3125 9.45312 27.3125C8.32812 27.3125 7.21875 27.1667 6.125 26.875C5.03125 26.5729 4.03646 26.1198 3.14062 25.5156C2.25521 24.9115 1.54688 24.1406 1.01562 23.2031C0.484375 22.2656 0.21875 21.1562 0.21875 19.875H4.92188C4.92188 20.5833 5.03125 21.1823 5.25 21.6719C5.46875 22.1615 5.77604 22.5573 6.17188 22.8594C6.57812 23.1615 7.05729 23.3802 7.60938 23.5156C8.17188 23.651 8.78646 23.7188 9.45312 23.7188C10.2656 23.7188 10.9323 23.6042 11.4531 23.375C11.9844 23.1458 12.375 22.8281 12.625 22.4219C12.8854 22.0156 13.0156 21.5573 13.0156 21.0469ZM36.1562 23.3438V27H24.0469V23.3438H36.1562ZM25.5781 4.25V27H20.8906V4.25H25.5781ZM34.5781 13.5156V17.0781H24.0469V13.5156H34.5781ZM36.1406 4.25V7.92188H24.0469V4.25H36.1406ZM48.0938 20.0156V4.25H52.7656V20.0156C52.7656 21.5365 52.4323 22.8438 51.7656 23.9375C51.099 25.0208 50.1875 25.8542 49.0312 26.4375C47.8854 27.0208 46.5938 27.3125 45.1562 27.3125C43.6667 27.3125 42.349 27.0625 41.2031 26.5625C40.0573 26.0625 39.1562 25.2969 38.5 24.2656C37.8438 23.224 37.5156 21.9062 37.5156 20.3125H42.2188C42.2188 21.1458 42.3333 21.8073 42.5625 22.2969C42.8021 22.7865 43.1406 23.1354 43.5781 23.3438C44.0156 23.5521 44.5417 23.6562 45.1562 23.6562C45.75 23.6562 46.2656 23.5156 46.7031 23.2344C47.1406 22.9531 47.4792 22.5417 47.7188 22C47.9688 21.4583 48.0938 20.7969 48.0938 20.0156ZM65.6719 8.14062L59.4844 27H54.5L62.9531 4.25H66.125L65.6719 8.14062ZM70.8125 27L64.6094 8.14062L64.1094 4.25H67.3125L75.8125 27H70.8125ZM70.5312 18.5312V22.2031H58.5156V18.5312H70.5312Z" fill="#00C2FF"/>
<path d="M94.7969 17.0156H88.9531L88.9219 13.7969H93.8281C94.6927 13.7969 95.401 13.6875 95.9531 13.4688C96.5052 13.2396 96.9167 12.9115 97.1875 12.4844C97.4688 12.0469 97.6094 11.5156 97.6094 10.8906C97.6094 10.1823 97.474 9.60938 97.2031 9.17188C96.9427 8.73438 96.5312 8.41667 95.9688 8.21875C95.4167 8.02083 94.7031 7.92188 93.8281 7.92188H90.5781V27H85.8906V4.25H93.8281C95.151 4.25 96.3333 4.375 97.375 4.625C98.4271 4.875 99.3177 5.25521 100.047 5.76562C100.776 6.27604 101.333 6.92188 101.719 7.70312C102.104 8.47396 102.297 9.39062 102.297 10.4531C102.297 11.3906 102.083 12.2552 101.656 13.0469C101.24 13.8385 100.578 14.4844 99.6719 14.9844C98.776 15.4844 97.6042 15.7604 96.1562 15.8125L94.7969 17.0156ZM94.5938 27H87.6719L89.5 23.3438H94.5938C95.4167 23.3438 96.0885 23.2135 96.6094 22.9531C97.1302 22.6823 97.5156 22.3177 97.7656 21.8594C98.0156 21.401 98.1406 20.875 98.1406 20.2812C98.1406 19.6146 98.026 19.0365 97.7969 18.5469C97.5781 18.0573 97.224 17.6823 96.7344 17.4219C96.2448 17.151 95.599 17.0156 94.7969 17.0156H90.2812L90.3125 13.7969H95.9375L97.0156 15.0625C98.401 15.0417 99.5156 15.2865 100.359 15.7969C101.214 16.2969 101.833 16.9479 102.219 17.75C102.615 18.5521 102.812 19.4115 102.812 20.3281C102.812 21.7865 102.495 23.0156 101.859 24.0156C101.224 25.0052 100.292 25.75 99.0625 26.25C97.8438 26.75 96.3542 27 94.5938 27ZM121.594 23.3438V27H109.484V23.3438H121.594ZM111.016 4.25V27H106.328V4.25H111.016ZM120.016 13.5156V17.0781H109.484V13.5156H120.016ZM121.578 4.25V7.92188H109.484V4.25H121.578ZM126.469 4.25H130.438L136.281 20.9531L142.125 4.25H146.094L137.875 27H134.688L126.469 4.25ZM124.328 4.25H128.281L129 20.5312V27H124.328V4.25ZM144.281 4.25H148.25V27H143.562V20.5312L144.281 4.25ZM164.531 27V30.4219H150.344V27H164.531ZM174.812 22.25L180.172 4.25H185.391L177.469 27H174.031L174.812 22.25ZM169.875 4.25L175.219 22.25L176.031 27H172.562L164.688 4.25H169.875ZM192.5 4.25V27H187.828V4.25H192.5ZM215.406 4.25V27H210.719L201.578 11.75V27H196.891V4.25H201.578L210.734 19.5156V4.25H215.406ZM226.469 27H221.516L221.547 23.3438H226.469C227.698 23.3438 228.734 23.0677 229.578 22.5156C230.422 21.9531 231.057 21.1354 231.484 20.0625C231.922 18.9896 232.141 17.6927 232.141 16.1719V15.0625C232.141 13.8958 232.016 12.8698 231.766 11.9844C231.526 11.099 231.167 10.3542 230.688 9.75C230.208 9.14583 229.62 8.69271 228.922 8.39062C228.224 8.07812 227.422 7.92188 226.516 7.92188H221.422V4.25H226.516C228.036 4.25 229.427 4.51042 230.688 5.03125C231.958 5.54167 233.057 6.27604 233.984 7.23438C234.911 8.19271 235.625 9.33854 236.125 10.6719C236.635 11.9948 236.891 13.4688 236.891 15.0938V16.1719C236.891 17.7865 236.635 19.2604 236.125 20.5938C235.625 21.9271 234.911 23.0729 233.984 24.0312C233.068 24.9792 231.969 25.7135 230.688 26.2344C229.417 26.7448 228.01 27 226.469 27ZM224.172 4.25V27H219.484V4.25H224.172Z" fill="#BD00FF"/>
<path d="M262.375 11.6875V15.25H248.359V11.6875H262.375ZM262.375 18.4375V22H248.359V18.4375H262.375Z" fill="white"/>
<path d="M281.188 0.5625V3.92188H278.984V28.9062H281.188V32.2656H274.469V0.5625H281.188ZM389.188 3.92188V0.5625H395.922V32.2656H389.188V28.9062H391.422V3.92188H389.188Z" fill="#FFE600"/>
<path d="M283.188 10.5625V8.23438C283.188 7.55729 283.318 6.85938 283.578 6.14062C283.839 5.42188 284.182 4.74479 284.609 4.10938C285.036 3.46354 285.505 2.91667 286.016 2.46875L288.109 3.6875C287.734 4.3125 287.411 4.98438 287.141 5.70312C286.87 6.42188 286.734 7.26562 286.734 8.23438V10.5625H283.188ZM288.5 10.5625V8.23438C288.5 7.55729 288.63 6.85938 288.891 6.14062C289.151 5.42188 289.495 4.74479 289.922 4.10938C290.349 3.46354 290.818 2.91667 291.328 2.46875L293.422 3.6875C293.047 4.3125 292.724 4.98438 292.453 5.70312C292.182 6.42188 292.047 7.26562 292.047 8.23438V10.5625H288.5ZM315.078 15.0938V16.1719C315.078 17.901 314.844 19.4531 314.375 20.8281C313.906 22.2031 313.245 23.375 312.391 24.3438C311.536 25.3021 310.516 26.0365 309.328 26.5469C308.151 27.0573 306.844 27.3125 305.406 27.3125C303.979 27.3125 302.672 27.0573 301.484 26.5469C300.307 26.0365 299.286 25.3021 298.422 24.3438C297.557 23.375 296.885 22.2031 296.406 20.8281C295.938 19.4531 295.703 17.901 295.703 16.1719V15.0938C295.703 13.3542 295.938 11.8021 296.406 10.4375C296.875 9.0625 297.536 7.89062 298.391 6.92188C299.255 5.95312 300.276 5.21354 301.453 4.70312C302.641 4.19271 303.948 3.9375 305.375 3.9375C306.812 3.9375 308.12 4.19271 309.297 4.70312C310.484 5.21354 311.505 5.95312 312.359 6.92188C313.224 7.89062 313.891 9.0625 314.359 10.4375C314.839 11.8021 315.078 13.3542 315.078 15.0938ZM310.344 16.1719V15.0625C310.344 13.8542 310.234 12.7917 310.016 11.875C309.797 10.9583 309.474 10.1875 309.047 9.5625C308.62 8.9375 308.099 8.46875 307.484 8.15625C306.87 7.83333 306.167 7.67188 305.375 7.67188C304.583 7.67188 303.88 7.83333 303.266 8.15625C302.661 8.46875 302.146 8.9375 301.719 9.5625C301.302 10.1875 300.984 10.9583 300.766 11.875C300.547 12.7917 300.438 13.8542 300.438 15.0625V16.1719C300.438 17.3698 300.547 18.4323 300.766 19.3594C300.984 20.276 301.307 21.0521 301.734 21.6875C302.161 22.3125 302.682 22.7865 303.297 23.1094C303.911 23.4323 304.615 23.5938 305.406 23.5938C306.198 23.5938 306.901 23.4323 307.516 23.1094C308.13 22.7865 308.646 22.3125 309.062 21.6875C309.479 21.0521 309.797 20.276 310.016 19.3594C310.234 18.4323 310.344 17.3698 310.344 16.1719ZM322.484 3V5.375C322.484 6.05208 322.354 6.75 322.094 7.46875C321.844 8.1875 321.505 8.86979 321.078 9.51562C320.651 10.151 320.182 10.6927 319.672 11.1406L317.562 9.92188C317.948 9.30729 318.276 8.64062 318.547 7.92188C318.818 7.19271 318.953 6.34896 318.953 5.39062V3H322.484ZM327.875 3V5.375C327.875 6.05208 327.745 6.75 327.484 7.46875C327.234 8.1875 326.896 8.86979 326.469 9.51562C326.042 10.151 325.573 10.6927 325.062 11.1406L322.953 9.92188C323.339 9.30729 323.667 8.64062 323.938 7.92188C324.208 7.19271 324.344 6.34896 324.344 5.39062V3H327.875ZM347.031 10.5625V8.23438C347.031 7.55729 347.161 6.85938 347.422 6.14062C347.682 5.42188 348.026 4.74479 348.453 4.10938C348.88 3.46354 349.349 2.91667 349.859 2.46875L351.953 3.6875C351.578 4.3125 351.255 4.98438 350.984 5.70312C350.714 6.42188 350.578 7.26562 350.578 8.23438V10.5625H347.031ZM352.344 10.5625V8.23438C352.344 7.55729 352.474 6.85938 352.734 6.14062C352.995 5.42188 353.339 4.74479 353.766 4.10938C354.193 3.46354 354.661 2.91667 355.172 2.46875L357.266 3.6875C356.891 4.3125 356.568 4.98438 356.297 5.70312C356.026 6.42188 355.891 7.26562 355.891 8.23438V10.5625H352.344ZM367.609 8.14062L361.422 27H356.438L364.891 4.25H368.062L367.609 8.14062ZM372.75 27L366.547 8.14062L366.047 4.25H369.25L377.75 27H372.75ZM372.469 18.5312V22.2031H360.453V18.5312H372.469ZM382.016 3V5.375C382.016 6.05208 381.885 6.75 381.625 7.46875C381.375 8.1875 381.036 8.86979 380.609 9.51562C380.182 10.151 379.714 10.6927 379.203 11.1406L377.094 9.92188C377.479 9.30729 377.807 8.64062 378.078 7.92188C378.349 7.19271 378.484 6.34896 378.484 5.39062V3H382.016ZM387.406 3V5.375C387.406 6.05208 387.276 6.75 387.016 7.46875C386.766 8.1875 386.427 8.86979 386 9.51562C385.573 10.151 385.104 10.6927 384.594 11.1406L382.484 9.92188C382.87 9.30729 383.198 8.64062 383.469 7.92188C383.74 7.19271 383.875 6.34896 383.875 5.39062V3H387.406Z" fill="#FF6B00"/>
<path d="M335.469 23.2031L335.453 26.2188C335.453 27.375 335.161 28.5417 334.578 29.7188C334.005 30.8958 333.276 31.8594 332.391 32.6094L330.047 31.4062C330.307 30.9271 330.562 30.4479 330.812 29.9688C331.062 29.4896 331.271 28.9635 331.438 28.3906C331.604 27.8177 331.688 27.1667 331.688 26.4375V23.2031H335.469Z" fill="#CDCDCD"/>
</svg>
