<svg width="28" height="28" viewBox="0 0 28 28" fill="none" xmlns="http://www.w3.org/2000/svg">
<path d="M17.5 13C17.8978 13 18.2794 12.842 18.5607 12.5607C18.842 12.2794 19 11.8978 19 11.5C19 11.1022 18.842 10.7206 18.5607 10.4393C18.2794 10.158 17.8978 10 17.5 10C17.1022 10 16.7206 10.158 16.4393 10.4393C16.158 10.7206 16 11.1022 16 11.5C16 11.8978 16.158 12.2794 16.4393 12.5607C16.7206 12.842 17.1022 13 17.5 13ZM12 11.5C12 11.8978 11.842 12.2794 11.5607 12.5607C11.2794 12.842 10.8978 13 10.5 13C10.1022 13 9.72064 12.842 9.43934 12.5607C9.15804 12.2794 9 11.8978 9 11.5C9 11.1022 9.15804 10.7206 9.43934 10.4393C9.72064 10.158 10.1022 10 10.5 10C10.8978 10 11.2794 10.158 11.5607 10.4393C11.842 10.7206 12 11.1022 12 11.5ZM8.328 17.13C8.49192 17.0184 8.69335 16.9763 8.88825 17.0128C9.08314 17.0494 9.25564 17.1616 9.368 17.325L9.377 17.337L9.421 17.396C9.463 17.45 9.531 17.532 9.624 17.634C9.811 17.837 10.096 18.114 10.482 18.391C11.25 18.944 12.412 19.5 14 19.5C15.588 19.5 16.75 18.944 17.518 18.391C17.904 18.114 18.19 17.837 18.376 17.634C18.4633 17.539 18.5461 17.4399 18.624 17.337L18.631 17.327C18.7431 17.1626 18.9158 17.0494 19.1113 17.0123C19.3069 16.9753 19.5091 17.0174 19.6735 17.1295C19.8379 17.2416 19.9511 17.4143 19.9882 17.6098C20.0252 17.8054 19.9831 18.0076 19.871 18.172L19.869 18.173V18.175L19.866 18.178L19.859 18.188L19.837 18.219C19.7259 18.3676 19.6075 18.5104 19.482 18.647C19.153 19.0038 18.7884 19.3262 18.394 19.609C17.424 20.306 15.962 21 14 21C12.038 21 10.576 20.306 9.606 19.609C9.21157 19.3262 8.84701 19.0038 8.518 18.647C8.38453 18.5012 8.25902 18.3483 8.142 18.189L8.134 18.179L8.132 18.175L8.131 18.173L8.13 18.172C8.01808 18.0076 7.97607 17.8054 8.0132 17.61C8.05033 17.4146 8.16357 17.2419 8.328 17.13ZM14 2C7.373 2 2 7.373 2 14C2 20.627 7.373 26 14 26C20.627 26 26 20.627 26 14C26 7.373 20.627 2 14 2ZM3.5 14C3.5 8.201 8.201 3.5 14 3.5C19.799 3.5 24.5 8.201 24.5 14C24.5 19.799 19.799 24.5 14 24.5C8.201 24.5 3.5 19.799 3.5 14Z" fill="#505050"/>
</svg>
