<svg width="367" height="70" viewBox="0 0 367 70" fill="none" xmlns="http://www.w3.org/2000/svg">
<path d="M0 0H367V38C367 55.6731 352.673 70 335 70H0V0Z" fill="#404040"/>
<path d="M86.6793 37.1367H90.1832C90.1129 38.2852 89.7965 39.3047 89.234 40.1953C88.6793 41.0859 87.902 41.7812 86.902 42.2812C85.9098 42.7812 84.7145 43.0312 83.316 43.0312C82.2223 43.0312 81.2418 42.8438 80.3746 42.4688C79.5075 42.0859 78.7653 41.5391 78.1481 40.8281C77.5387 40.1172 77.0739 39.2578 76.7535 38.25C76.4332 37.2422 76.2731 36.1133 76.2731 34.8633V33.6797C76.2731 32.4297 76.4371 31.3008 76.7653 30.293C77.1012 29.2773 77.5778 28.4141 78.195 27.7031C78.82 26.9922 79.566 26.4453 80.4332 26.0625C81.3004 25.6797 82.2692 25.4883 83.3395 25.4883C84.7614 25.4883 85.9606 25.7461 86.9371 26.2617C87.9215 26.7773 88.6832 27.4883 89.2223 28.3945C89.7692 29.3008 90.0973 30.332 90.2067 31.4883H86.691C86.652 30.8008 86.5153 30.2188 86.2809 29.7422C86.0465 29.2578 85.691 28.8945 85.2145 28.6523C84.7457 28.4023 84.1207 28.2773 83.3395 28.2773C82.7535 28.2773 82.2418 28.3867 81.8043 28.6055C81.3668 28.8242 80.9996 29.1562 80.7028 29.6016C80.4059 30.0469 80.1832 30.6094 80.0348 31.2891C79.8942 31.9609 79.8239 32.75 79.8239 33.6562V34.8633C79.8239 35.7461 79.8903 36.5234 80.0231 37.1953C80.1559 37.8594 80.359 38.4219 80.6325 38.8828C80.9137 39.3359 81.2731 39.6797 81.7106 39.9141C82.1559 40.1406 82.691 40.2539 83.316 40.2539C84.0504 40.2539 84.6559 40.1367 85.1325 39.9023C85.609 39.668 85.9723 39.3203 86.2223 38.8594C86.4801 38.3984 86.6325 37.8242 86.6793 37.1367ZM107.231 32.6836V35.4258H98.3245V32.6836H107.231ZM99.3675 25.7344V42.7969H95.8518V25.7344H99.3675ZM109.739 25.7344V42.7969H106.235V25.7344H109.739ZM123.306 28.6523L118.665 42.7969H114.927L121.267 25.7344H123.645L123.306 28.6523ZM127.161 42.7969L122.509 28.6523L122.134 25.7344H124.536L130.911 42.7969H127.161ZM126.95 36.4453V39.1992H117.938V36.4453H126.95ZM142.029 25.7344V42.7969H138.525V25.7344H142.029ZM147.279 25.7344V28.4883H133.357V25.7344H147.279Z" fill="#FF8A00"/>
<path d="M217.267 22.9688V25.4883H215.615V44.2266H217.267V46.7461H212.228V22.9688H217.267ZM285.231 25.4883V22.9688H290.282V46.7461H285.231V44.2266H286.907V25.4883H285.231Z" fill="#FFE600"/>
<path d="M166.069 42.7969H162.671V28.9922C162.671 28.0312 162.858 27.2227 163.233 26.5664C163.616 25.9023 164.151 25.4023 164.839 25.0664C165.534 24.7227 166.358 24.5508 167.311 24.5508C167.624 24.5508 167.925 24.5742 168.214 24.6211C168.503 24.6602 168.784 24.7109 169.057 24.7734L169.022 27.3164C168.874 27.2773 168.718 27.25 168.554 27.2344C168.389 27.2188 168.198 27.2109 167.979 27.2109C167.573 27.2109 167.225 27.2812 166.936 27.4219C166.655 27.5547 166.44 27.7539 166.292 28.0195C166.143 28.2852 166.069 28.6094 166.069 28.9922V42.7969ZM168.6 30.1172V32.5078H160.784V30.1172H168.6ZM173.191 36.5859V36.3398C173.191 35.4102 173.324 34.5547 173.589 33.7734C173.855 32.9844 174.242 32.3008 174.749 31.7227C175.257 31.1445 175.882 30.6953 176.624 30.375C177.367 30.0469 178.218 29.8828 179.179 29.8828C180.14 29.8828 180.996 30.0469 181.746 30.375C182.496 30.6953 183.124 31.1445 183.632 31.7227C184.148 32.3008 184.539 32.9844 184.804 33.7734C185.07 34.5547 185.203 35.4102 185.203 36.3398V36.5859C185.203 37.5078 185.07 38.3633 184.804 39.1523C184.539 39.9336 184.148 40.6172 183.632 41.2031C183.124 41.7812 182.499 42.2305 181.757 42.5508C181.015 42.8711 180.164 43.0312 179.203 43.0312C178.242 43.0312 177.386 42.8711 176.636 42.5508C175.894 42.2305 175.265 41.7812 174.749 41.2031C174.242 40.6172 173.855 39.9336 173.589 39.1523C173.324 38.3633 173.191 37.5078 173.191 36.5859ZM176.566 36.3398V36.5859C176.566 37.1172 176.613 37.6133 176.707 38.0742C176.8 38.5352 176.949 38.9414 177.152 39.293C177.363 39.6367 177.636 39.9062 177.972 40.1016C178.308 40.2969 178.718 40.3945 179.203 40.3945C179.671 40.3945 180.074 40.2969 180.41 40.1016C180.746 39.9062 181.015 39.6367 181.218 39.293C181.421 38.9414 181.57 38.5352 181.664 38.0742C181.765 37.6133 181.816 37.1172 181.816 36.5859V36.3398C181.816 35.8242 181.765 35.3398 181.664 34.8867C181.57 34.4258 181.417 34.0195 181.207 33.668C181.003 33.3086 180.734 33.0273 180.398 32.8242C180.062 32.6211 179.656 32.5195 179.179 32.5195C178.703 32.5195 178.296 32.6211 177.96 32.8242C177.632 33.0273 177.363 33.3086 177.152 33.668C176.949 34.0195 176.8 34.4258 176.707 34.8867C176.613 35.3398 176.566 35.8242 176.566 36.3398ZM194.012 32.8828V42.7969H190.637V30.1172H193.813L194.012 32.8828ZM197.832 30.0352L197.774 33.1641C197.609 33.1406 197.41 33.1211 197.176 33.1055C196.949 33.082 196.742 33.0703 196.555 33.0703C196.078 33.0703 195.664 33.1328 195.313 33.2578C194.969 33.375 194.68 33.5508 194.445 33.7852C194.219 34.0195 194.047 34.3047 193.93 34.6406C193.82 34.9766 193.758 35.3594 193.742 35.7891L193.063 35.5781C193.063 34.7578 193.145 34.0039 193.309 33.3164C193.473 32.6211 193.711 32.0156 194.024 31.5C194.344 30.9844 194.734 30.5859 195.195 30.3047C195.656 30.0234 196.184 29.8828 196.777 29.8828C196.965 29.8828 197.156 29.8984 197.352 29.9297C197.547 29.9531 197.707 29.9883 197.832 30.0352Z" fill="#5FB2FF"/>
<path d="M229.627 40.0312V24.7969H233.025V42.7969H229.967L229.627 40.0312ZM221.611 36.6094V36.3633C221.611 35.3945 221.721 34.5156 221.939 33.7266C222.158 32.9297 222.479 32.2461 222.9 31.6758C223.322 31.1055 223.842 30.6641 224.459 30.3516C225.076 30.0391 225.779 29.8828 226.568 29.8828C227.311 29.8828 227.959 30.0391 228.514 30.3516C229.076 30.6641 229.553 31.1094 229.943 31.6875C230.342 32.2578 230.662 32.9336 230.904 33.7148C231.147 34.4883 231.322 35.3359 231.432 36.2578V36.7969C231.322 37.6797 231.147 38.5 230.904 39.2578C230.662 40.0156 230.342 40.6797 229.943 41.25C229.553 41.8125 229.076 42.25 228.514 42.5625C227.951 42.875 227.295 43.0312 226.545 43.0312C225.756 43.0312 225.053 42.8711 224.436 42.5508C223.826 42.2305 223.311 41.7812 222.889 41.2031C222.475 40.625 222.158 39.9453 221.939 39.1641C221.721 38.3828 221.611 37.5312 221.611 36.6094ZM224.986 36.3633V36.6094C224.986 37.1328 225.025 37.6211 225.104 38.0742C225.189 38.5273 225.326 38.9297 225.514 39.2812C225.709 39.625 225.959 39.8945 226.264 40.0898C226.576 40.2773 226.955 40.3711 227.4 40.3711C227.979 40.3711 228.455 40.2422 228.83 39.9844C229.205 39.7188 229.49 39.3555 229.686 38.8945C229.889 38.4336 230.006 37.9023 230.037 37.3008V35.7656C230.014 35.2734 229.943 34.832 229.826 34.4414C229.717 34.043 229.553 33.7031 229.334 33.4219C229.123 33.1406 228.857 32.9219 228.537 32.7656C228.225 32.6094 227.854 32.5312 227.424 32.5312C226.986 32.5312 226.611 32.6328 226.299 32.8359C225.986 33.0312 225.732 33.3008 225.537 33.6445C225.35 33.9883 225.209 34.3945 225.115 34.8633C225.029 35.3242 224.986 35.8242 224.986 36.3633ZM244.858 43.0312C243.874 43.0312 242.991 42.875 242.21 42.5625C241.428 42.2422 240.764 41.8008 240.217 41.2383C239.678 40.6758 239.264 40.0234 238.975 39.2812C238.686 38.5312 238.542 37.7344 238.542 36.8906V36.4219C238.542 35.4609 238.678 34.582 238.952 33.7852C239.225 32.9883 239.616 32.2969 240.124 31.7109C240.639 31.125 241.264 30.6758 241.999 30.3633C242.733 30.043 243.561 29.8828 244.483 29.8828C245.382 29.8828 246.178 30.0313 246.874 30.3281C247.569 30.625 248.151 31.0469 248.62 31.5938C249.096 32.1406 249.456 32.7969 249.698 33.5625C249.94 34.3203 250.061 35.1641 250.061 36.0938V37.5H239.983V35.25H246.745V34.9922C246.745 34.5234 246.659 34.1055 246.487 33.7383C246.323 33.3633 246.073 33.0664 245.737 32.8477C245.401 32.6289 244.971 32.5195 244.448 32.5195C244.003 32.5195 243.62 32.6172 243.299 32.8125C242.979 33.0078 242.717 33.2812 242.514 33.6328C242.319 33.9844 242.171 34.3984 242.069 34.875C241.975 35.3438 241.928 35.8594 241.928 36.4219V36.8906C241.928 37.3984 241.999 37.8672 242.139 38.2969C242.288 38.7266 242.495 39.0977 242.76 39.4102C243.034 39.7227 243.362 39.9648 243.745 40.1367C244.135 40.3086 244.577 40.3945 245.069 40.3945C245.678 40.3945 246.245 40.2773 246.768 40.043C247.299 39.8008 247.757 39.4375 248.139 38.9531L249.78 40.7344C249.514 41.1172 249.151 41.4844 248.69 41.8359C248.237 42.1875 247.69 42.4766 247.049 42.7031C246.409 42.9219 245.678 43.0312 244.858 43.0312ZM259.492 40.3359L262.304 30.1172H265.831L261.554 42.7969H259.421L259.492 40.3359ZM257.558 30.1172L260.382 40.3477L260.441 42.7969H258.296L254.019 30.1172H257.558ZM277.559 39.293C277.559 39.0508 277.488 38.832 277.348 38.6367C277.207 38.4414 276.945 38.2617 276.562 38.0977C276.187 37.9258 275.644 37.7695 274.934 37.6289C274.293 37.4883 273.695 37.3125 273.141 37.1016C272.594 36.8828 272.117 36.6211 271.711 36.3164C271.312 36.0117 271 35.6523 270.773 35.2383C270.547 34.8164 270.434 34.3359 270.434 33.7969C270.434 33.2656 270.547 32.7656 270.773 32.2969C271.008 31.8281 271.34 31.4141 271.769 31.0547C272.207 30.6875 272.738 30.4023 273.363 30.1992C273.996 29.9883 274.707 29.8828 275.496 29.8828C276.598 29.8828 277.543 30.0586 278.332 30.4102C279.129 30.7617 279.738 31.2461 280.16 31.8633C280.59 32.4727 280.805 33.168 280.805 33.9492H277.43C277.43 33.6211 277.359 33.3281 277.219 33.0703C277.086 32.8047 276.875 32.5977 276.586 32.4492C276.305 32.293 275.937 32.2148 275.484 32.2148C275.109 32.2148 274.785 32.2812 274.512 32.4141C274.238 32.5391 274.027 32.7109 273.879 32.9297C273.738 33.1406 273.668 33.375 273.668 33.6328C273.668 33.8281 273.707 34.0039 273.785 34.1602C273.871 34.3086 274.008 34.4453 274.195 34.5703C274.383 34.6953 274.625 34.8125 274.922 34.9219C275.227 35.0234 275.602 35.1172 276.047 35.2031C276.961 35.3906 277.777 35.6367 278.496 35.9414C279.215 36.2383 279.785 36.6445 280.207 37.1602C280.629 37.668 280.84 38.3359 280.84 39.1641C280.84 39.7266 280.715 40.2422 280.465 40.7109C280.215 41.1797 279.855 41.5898 279.387 41.9414C278.918 42.2852 278.355 42.5547 277.699 42.75C277.051 42.9375 276.32 43.0312 275.508 43.0312C274.328 43.0312 273.328 42.8203 272.508 42.3984C271.695 41.9766 271.078 41.4414 270.656 40.793C270.242 40.1367 270.035 39.4648 270.035 38.7773H273.234C273.25 39.2383 273.367 39.6094 273.586 39.8906C273.812 40.1719 274.098 40.375 274.441 40.5C274.793 40.625 275.172 40.6875 275.578 40.6875C276.016 40.6875 276.379 40.6289 276.668 40.5117C276.957 40.3867 277.176 40.2227 277.324 40.0195C277.48 39.8086 277.559 39.5664 277.559 39.293Z" fill="white"/>
</svg>
