<svg width="616" height="123" viewBox="0 0 616 123" fill="none" xmlns="http://www.w3.org/2000/svg">
<rect width="616" height="123" rx="6" fill="#404040"/>
<path d="M65.9481 67.8496H74.7078C74.532 70.7207 73.741 73.2695 72.3348 75.4961C70.9481 77.7227 69.0047 79.4609 66.5047 80.7109C64.0242 81.9609 61.0359 82.5859 57.5399 82.5859C54.8055 82.5859 52.3543 82.1172 50.1863 81.1797C48.0184 80.2227 46.1629 78.8555 44.6199 77.0781C43.0965 75.3008 41.9344 73.1523 41.1336 70.6328C40.3328 68.1133 39.9324 65.291 39.9324 62.166V59.207C39.9324 56.082 40.3426 53.2598 41.1629 50.7402C42.0027 48.2012 43.1942 46.043 44.7371 44.2656C46.2996 42.4883 48.1649 41.1211 50.3328 40.1641C52.5008 39.207 54.9227 38.7285 57.5984 38.7285C61.1531 38.7285 64.1512 39.373 66.5926 40.6621C69.0535 41.9512 70.9578 43.7285 72.3055 45.9941C73.6727 48.2598 74.493 50.8379 74.7664 53.7285H65.9774C65.8797 52.0098 65.5379 50.5547 64.952 49.3633C64.366 48.1523 63.4774 47.2441 62.2859 46.6387C61.1141 46.0137 59.5516 45.7012 57.5984 45.7012C56.1336 45.7012 54.8543 45.9746 53.7606 46.5215C52.6668 47.0684 51.7488 47.8984 51.0067 49.0117C50.2645 50.125 49.7078 51.5312 49.3367 53.2305C48.9852 54.9102 48.8094 56.8828 48.8094 59.1484V62.166C48.8094 64.373 48.9754 66.3164 49.3074 67.9961C49.6395 69.6562 50.1473 71.0625 50.8309 72.2148C51.534 73.3477 52.4324 74.207 53.5262 74.793C54.6395 75.3594 55.9774 75.6426 57.5399 75.6426C59.3758 75.6426 60.8895 75.3496 62.0809 74.7637C63.2723 74.1777 64.1805 73.3086 64.8055 72.1562C65.45 71.0039 65.8309 69.5684 65.9481 67.8496ZM117.327 56.7168V63.5723H95.061V56.7168H117.327ZM97.6684 39.3438V82H88.8793V39.3438H97.6684ZM123.596 39.3438V82H114.836V39.3438H123.596ZM157.514 46.6387L145.912 82H136.566L152.416 39.3438H158.363L157.514 46.6387ZM167.152 82L155.521 46.6387L154.584 39.3438H160.59L176.527 82H167.152ZM166.625 66.1211V73.0059H144.096V66.1211H166.625ZM204.322 39.3438V82H195.562V39.3438H204.322ZM217.447 39.3438V46.2285H182.642V39.3438H217.447Z" fill="#FF8A00"/>
<path d="M392.417 32.4297V38.7285H388.286V85.5742H392.417V91.873H379.82V32.4297H392.417ZM562.327 38.7285V32.4297H574.954V91.873H562.327V85.5742H566.517V38.7285H562.327Z" fill="#FFE600"/>
<path d="M264.423 82H255.927V47.4883C255.927 45.0859 256.395 43.0645 257.333 41.4238C258.29 39.7637 259.628 38.5137 261.346 37.6738C263.085 36.8145 265.145 36.3848 267.528 36.3848C268.309 36.3848 269.061 36.4434 269.784 36.5605C270.507 36.6582 271.21 36.7852 271.893 36.9414L271.805 43.2988C271.434 43.2012 271.044 43.1328 270.634 43.0938C270.223 43.0547 269.745 43.0352 269.198 43.0352C268.182 43.0352 267.313 43.2109 266.591 43.5625C265.888 43.8945 265.35 44.3926 264.979 45.0566C264.608 45.7207 264.423 46.5312 264.423 47.4883V82ZM270.751 50.3008V56.2773H251.21V50.3008H270.751ZM282.227 66.4727V65.8574C282.227 63.5332 282.559 61.3945 283.223 59.4414C283.887 57.4688 284.854 55.7598 286.123 54.3145C287.393 52.8691 288.955 51.7461 290.811 50.9453C292.666 50.125 294.795 49.7148 297.198 49.7148C299.6 49.7148 301.739 50.125 303.614 50.9453C305.489 51.7461 307.061 52.8691 308.33 54.3145C309.62 55.7598 310.596 57.4688 311.26 59.4414C311.924 61.3945 312.256 63.5332 312.256 65.8574V66.4727C312.256 68.7773 311.924 70.916 311.26 72.8887C310.596 74.8418 309.62 76.5508 308.33 78.0156C307.061 79.4609 305.498 80.584 303.643 81.3848C301.788 82.1855 299.659 82.5859 297.256 82.5859C294.854 82.5859 292.715 82.1855 290.84 81.3848C288.985 80.584 287.413 79.4609 286.123 78.0156C284.854 76.5508 283.887 74.8418 283.223 72.8887C282.559 70.916 282.227 68.7773 282.227 66.4727ZM290.664 65.8574V66.4727C290.664 67.8008 290.782 69.041 291.016 70.1934C291.25 71.3457 291.621 72.3613 292.129 73.2402C292.657 74.0996 293.34 74.7734 294.18 75.2617C295.02 75.75 296.045 75.9941 297.256 75.9941C298.428 75.9941 299.434 75.75 300.274 75.2617C301.114 74.7734 301.788 74.0996 302.295 73.2402C302.803 72.3613 303.174 71.3457 303.409 70.1934C303.663 69.041 303.789 67.8008 303.789 66.4727V65.8574C303.789 64.5684 303.663 63.3574 303.409 62.2246C303.174 61.0723 302.793 60.0566 302.266 59.1777C301.758 58.2793 301.084 57.5762 300.245 57.0684C299.405 56.5605 298.389 56.3066 297.198 56.3066C296.006 56.3066 294.991 56.5605 294.151 57.0684C293.33 57.5762 292.657 58.2793 292.129 59.1777C291.621 60.0566 291.25 61.0723 291.016 62.2246C290.782 63.3574 290.664 64.5684 290.664 65.8574ZM334.279 57.2148V82H325.842V50.3008H333.781L334.279 57.2148ZM343.83 50.0957L343.684 57.918C343.273 57.8594 342.775 57.8105 342.189 57.7715C341.623 57.7129 341.105 57.6836 340.637 57.6836C339.445 57.6836 338.41 57.8398 337.531 58.1523C336.672 58.4453 335.949 58.8848 335.363 59.4707C334.797 60.0566 334.367 60.7695 334.074 61.6094C333.801 62.4492 333.645 63.4063 333.605 64.4805L331.906 63.9531C331.906 61.9023 332.111 60.0176 332.521 58.2988C332.932 56.5605 333.527 55.0469 334.309 53.7578C335.109 52.4688 336.086 51.4727 337.238 50.7695C338.391 50.0664 339.709 49.7148 341.193 49.7148C341.662 49.7148 342.141 49.7539 342.629 49.832C343.117 49.8906 343.518 49.9785 343.83 50.0957Z" fill="#5FB2FF"/>
<path d="M423.317 75.0859V37H431.813V82H424.167L423.317 75.0859ZM403.278 66.5312V65.916C403.278 63.4941 403.552 61.2969 404.098 59.3242C404.645 57.332 405.446 55.623 406.501 54.1973C407.555 52.7715 408.854 51.668 410.397 50.8867C411.94 50.1055 413.698 49.7148 415.671 49.7148C417.526 49.7148 419.147 50.1055 420.534 50.8867C421.94 51.668 423.132 52.7813 424.108 54.2266C425.104 55.6523 425.905 57.3418 426.511 59.2949C427.116 61.2285 427.555 63.3477 427.829 65.6523V67C427.555 69.207 427.116 71.2578 426.511 73.1523C425.905 75.0469 425.104 76.707 424.108 78.1328C423.132 79.5391 421.94 80.6328 420.534 81.4141C419.128 82.1953 417.487 82.5859 415.612 82.5859C413.639 82.5859 411.882 82.1855 410.339 81.3848C408.815 80.584 407.526 79.4609 406.471 78.0156C405.436 76.5703 404.645 74.8711 404.098 72.918C403.552 70.9648 403.278 68.8359 403.278 66.5312ZM411.716 65.916V66.5312C411.716 67.8398 411.813 69.0605 412.009 70.1934C412.223 71.3262 412.565 72.332 413.034 73.2109C413.522 74.0703 414.147 74.7441 414.909 75.2324C415.69 75.7012 416.638 75.9355 417.751 75.9355C419.196 75.9355 420.388 75.6133 421.325 74.9688C422.263 74.3047 422.975 73.3965 423.464 72.2441C423.971 71.0918 424.264 69.7637 424.343 68.2598V64.4219C424.284 63.1914 424.108 62.0879 423.815 61.1113C423.542 60.1152 423.132 59.2656 422.585 58.5625C422.057 57.8594 421.393 57.3125 420.593 56.9219C419.811 56.5312 418.884 56.3359 417.809 56.3359C416.716 56.3359 415.778 56.5898 414.997 57.0977C414.216 57.5859 413.581 58.2598 413.093 59.1191C412.624 59.9785 412.272 60.9941 412.038 62.166C411.823 63.3184 411.716 64.5684 411.716 65.916ZM461.395 82.5859C458.934 82.5859 456.727 82.1953 454.774 81.4141C452.821 80.6133 451.161 79.5098 449.793 78.1035C448.446 76.6973 447.411 75.0664 446.688 73.2109C445.965 71.3359 445.604 69.3438 445.604 67.2344V66.0625C445.604 63.6602 445.946 61.4629 446.629 59.4707C447.313 57.4785 448.289 55.75 449.559 54.2852C450.848 52.8203 452.411 51.6973 454.246 50.916C456.082 50.1152 458.153 49.7148 460.457 49.7148C462.704 49.7148 464.696 50.0859 466.434 50.8281C468.172 51.5703 469.627 52.625 470.799 53.9922C471.991 55.3594 472.889 57 473.495 58.9141C474.1 60.8086 474.403 62.918 474.403 65.2422V68.7578H449.207V63.1328H466.112V62.4883C466.112 61.3164 465.897 60.2715 465.467 59.3535C465.057 58.416 464.432 57.6738 463.592 57.127C462.752 56.5801 461.678 56.3066 460.37 56.3066C459.256 56.3066 458.299 56.5508 457.498 57.0391C456.698 57.5273 456.043 58.2109 455.536 59.0898C455.047 59.9688 454.676 61.0039 454.422 62.1953C454.188 63.3672 454.071 64.6562 454.071 66.0625V67.2344C454.071 68.5039 454.246 69.6758 454.598 70.75C454.969 71.8242 455.487 72.752 456.151 73.5332C456.834 74.3145 457.655 74.9199 458.612 75.3496C459.588 75.7793 460.692 75.9941 461.922 75.9941C463.446 75.9941 464.862 75.7012 466.17 75.1152C467.498 74.5098 468.641 73.6016 469.598 72.3906L473.7 76.8438C473.036 77.8008 472.127 78.7188 470.975 79.5977C469.842 80.4766 468.475 81.1992 466.873 81.7656C465.272 82.3125 463.446 82.5859 461.395 82.5859ZM497.979 75.8477L505.01 50.3008H513.828L503.135 82H497.803L497.979 75.8477ZM493.145 50.3008L500.205 75.877L500.352 82H494.99L484.297 50.3008H493.145ZM543.146 73.2402C543.146 72.6348 542.97 72.0879 542.619 71.5996C542.267 71.1113 541.613 70.6621 540.656 70.252C539.718 69.8223 538.361 69.4316 536.584 69.0801C534.982 68.7285 533.488 68.2891 532.101 67.7617C530.734 67.2148 529.543 66.5605 528.527 65.7988C527.531 65.0371 526.75 64.1387 526.183 63.1035C525.617 62.0488 525.334 60.8477 525.334 59.5C525.334 58.1719 525.617 56.9219 526.183 55.75C526.769 54.5781 527.599 53.543 528.673 52.6445C529.767 51.7266 531.095 51.0137 532.658 50.5059C534.24 49.9785 536.017 49.7148 537.99 49.7148C540.744 49.7148 543.107 50.1543 545.08 51.0332C547.072 51.9121 548.595 53.123 549.65 54.666C550.724 56.1895 551.261 57.9277 551.261 59.8809H542.824C542.824 59.0605 542.648 58.3281 542.296 57.6836C541.964 57.0195 541.437 56.502 540.714 56.1309C540.011 55.7402 539.093 55.5449 537.961 55.5449C537.023 55.5449 536.212 55.7109 535.529 56.043C534.845 56.3555 534.318 56.7852 533.947 57.332C533.595 57.8594 533.42 58.4453 533.42 59.0898C533.42 59.5781 533.517 60.0176 533.712 60.4082C533.927 60.7793 534.269 61.1211 534.738 61.4336C535.207 61.7461 535.812 62.0391 536.554 62.3125C537.316 62.5664 538.254 62.8008 539.367 63.0156C541.652 63.4844 543.693 64.0996 545.49 64.8613C547.287 65.6035 548.712 66.6191 549.767 67.9082C550.822 69.1777 551.349 70.8477 551.349 72.918C551.349 74.3242 551.037 75.6133 550.412 76.7852C549.787 77.957 548.888 78.9824 547.716 79.8613C546.545 80.7207 545.138 81.3945 543.498 81.8828C541.877 82.3516 540.05 82.5859 538.019 82.5859C535.07 82.5859 532.57 82.0586 530.519 81.0039C528.488 79.9492 526.945 78.6113 525.89 76.9902C524.855 75.3496 524.337 73.6699 524.337 71.9512H532.336C532.375 73.1035 532.668 74.0312 533.214 74.7344C533.781 75.4375 534.494 75.9453 535.353 76.2578C536.232 76.5703 537.179 76.7266 538.195 76.7266C539.289 76.7266 540.197 76.5801 540.92 76.2871C541.642 75.9746 542.189 75.5645 542.56 75.0566C542.951 74.5293 543.146 73.9238 543.146 73.2402Z" fill="white"/>
</svg>
