<svg width="8" height="37" viewBox="0 0 8 37" fill="none" xmlns="http://www.w3.org/2000/svg">
<path d="M4 5.6875C5.29442 5.6875 6.34375 4.63817 6.34375 3.34375C6.34375 2.04933 5.29442 1 4 1C2.70558 1 1.65625 2.04933 1.65625 3.34375C1.65625 4.63817 2.70558 5.6875 4 5.6875Z" fill="#2FFF37" stroke="#2FFF37" stroke-width="2" stroke-linecap="round" stroke-linejoin="round"/>
<path d="M4 20.375C5.29442 20.375 6.34375 19.3257 6.34375 18.0312C6.34375 16.7368 5.29442 15.6875 4 15.6875C2.70558 15.6875 1.65625 16.7368 1.65625 18.0312C1.65625 19.3257 2.70558 20.375 4 20.375Z" fill="#2FFF37" stroke="#2FFF37" stroke-width="2" stroke-linecap="round" stroke-linejoin="round"/>
<path d="M4 35.0625C5.29442 35.0625 6.34375 34.0132 6.34375 32.7188C6.34375 31.4243 5.29442 30.375 4 30.375C2.70558 30.375 1.65625 31.4243 1.65625 32.7188C1.65625 34.0132 2.70558 35.0625 4 35.0625Z" fill="#2FFF37" stroke="#2FFF37" stroke-width="2" stroke-linecap="round" stroke-linejoin="round"/>
</svg>
