<svg width="411" height="82" viewBox="0 0 411 82" fill="none" xmlns="http://www.w3.org/2000/svg">
<path d="M0 0H411V62C411 73.0457 402.046 82 391 82H20C8.95432 82 0 73.0457 0 62V0Z" fill="#404040"/>
<path d="M83.7873 44.9248H88.1672C88.0793 46.3604 87.6838 47.6348 86.9807 48.748C86.2873 49.8613 85.3157 50.7305 84.0657 51.3555C82.8254 51.9805 81.3313 52.293 79.5832 52.293C78.216 52.293 76.9905 52.0586 75.9065 51.5898C74.8225 51.1113 73.8948 50.4277 73.1233 49.5391C72.3616 48.6504 71.7805 47.5762 71.3801 46.3164C70.9797 45.0566 70.7795 43.6455 70.7795 42.083V40.6035C70.7795 39.041 70.9846 37.6299 71.3948 36.3701C71.8147 35.1006 72.4104 34.0215 73.1819 33.1328C73.9631 32.2441 74.8957 31.5605 75.9797 31.082C77.0637 30.6035 78.2746 30.3643 79.6125 30.3643C81.3899 30.3643 82.8889 30.6865 84.1096 31.3311C85.3401 31.9756 86.2922 32.8643 86.966 33.9971C87.6496 35.1299 88.0598 36.4189 88.1965 37.8643H83.802C83.7532 37.0049 83.5823 36.2773 83.2893 35.6816C82.9963 35.0762 82.552 34.6221 81.9563 34.3193C81.3703 34.0068 80.5891 33.8506 79.6125 33.8506C78.8801 33.8506 78.2405 33.9873 77.6936 34.2607C77.1467 34.5342 76.6877 34.9492 76.3166 35.5059C75.9455 36.0625 75.6672 36.7656 75.4817 37.6152C75.3059 38.4551 75.218 39.4414 75.218 40.5742V42.083C75.218 43.1865 75.301 44.1582 75.467 44.998C75.633 45.8281 75.8869 46.5312 76.2287 47.1074C76.5803 47.6738 77.0295 48.1035 77.5764 48.3965C78.133 48.6797 78.802 48.8213 79.5832 48.8213C80.5012 48.8213 81.258 48.6748 81.8537 48.3818C82.4494 48.0889 82.9035 47.6543 83.216 47.0781C83.5383 46.502 83.7287 45.7842 83.7873 44.9248ZM109.477 39.3584V42.7861H98.3438V39.3584H109.477ZM99.6475 30.6719V52H95.253V30.6719H99.6475ZM112.611 30.6719V52H108.231V30.6719H112.611ZM129.57 34.3193L123.769 52H119.097L127.021 30.6719H129.995L129.57 34.3193ZM134.389 52L128.574 34.3193L128.105 30.6719L131.108 30.6719L139.077 52H134.389ZM134.126 44.0605V47.5029H122.861V44.0605H134.126ZM152.974 30.6719V52H148.594V30.6719H152.974ZM159.537 30.6719V34.1143H142.134V30.6719H159.537Z" fill="#FF8A00"/>
<path d="M247.022 27.2148V30.3643H244.956V53.7871H247.022V56.9365H240.723V27.2148H247.022ZM331.977 30.3643V27.2148H338.29V56.9365H331.977V53.7871H334.072V30.3643H331.977Z" fill="#FFE600"/>
<path d="M183.025 52H178.777V34.7441C178.777 33.543 179.011 32.5322 179.48 31.7119C179.958 30.8818 180.627 30.2568 181.487 29.8369C182.356 29.4072 183.386 29.1924 184.577 29.1924C184.968 29.1924 185.344 29.2217 185.705 29.2803C186.067 29.3291 186.418 29.3926 186.76 29.4707L186.716 32.6494C186.531 32.6006 186.335 32.5664 186.13 32.5469C185.925 32.5273 185.686 32.5176 185.412 32.5176C184.905 32.5176 184.47 32.6055 184.109 32.7812C183.757 32.9473 183.489 33.1963 183.303 33.5283C183.117 33.8604 183.025 34.2656 183.025 34.7441V52ZM186.189 36.1504V39.1387H176.418V36.1504H186.189ZM191.927 44.2363V43.9287C191.927 42.7666 192.093 41.6973 192.425 40.7207C192.757 39.7344 193.24 38.8799 193.875 38.1572C194.51 37.4346 195.291 36.873 196.219 36.4727C197.147 36.0625 198.211 35.8574 199.412 35.8574C200.613 35.8574 201.683 36.0625 202.62 36.4727C203.558 36.873 204.344 37.4346 204.979 38.1572C205.623 38.8799 206.111 39.7344 206.443 40.7207C206.775 41.6973 206.941 42.7666 206.941 43.9287V44.2363C206.941 45.3887 206.775 46.458 206.443 47.4443C206.111 48.4209 205.623 49.2754 204.979 50.0078C204.344 50.7305 203.563 51.292 202.635 51.6924C201.707 52.0928 200.643 52.293 199.441 52.293C198.24 52.293 197.171 52.0928 196.233 51.6924C195.306 51.292 194.52 50.7305 193.875 50.0078C193.24 49.2754 192.757 48.4209 192.425 47.4443C192.093 46.458 191.927 45.3887 191.927 44.2363ZM196.146 43.9287V44.2363C196.146 44.9004 196.204 45.5205 196.321 46.0967C196.439 46.6729 196.624 47.1807 196.878 47.6201C197.142 48.0498 197.483 48.3867 197.903 48.6309C198.323 48.875 198.836 48.9971 199.441 48.9971C200.027 48.9971 200.53 48.875 200.95 48.6309C201.37 48.3867 201.707 48.0498 201.961 47.6201C202.215 47.1807 202.4 46.6729 202.518 46.0967C202.645 45.5205 202.708 44.9004 202.708 44.2363V43.9287C202.708 43.2842 202.645 42.6787 202.518 42.1123C202.4 41.5361 202.21 41.0283 201.946 40.5889C201.692 40.1396 201.355 39.7881 200.936 39.5342C200.516 39.2803 200.008 39.1533 199.412 39.1533C198.816 39.1533 198.309 39.2803 197.889 39.5342C197.479 39.7881 197.142 40.1396 196.878 40.5889C196.624 41.0283 196.439 41.5361 196.321 42.1123C196.204 42.6787 196.146 43.2842 196.146 43.9287ZM217.953 39.6074V52H213.734V36.1504H217.704L217.953 39.6074ZM222.728 36.0479L222.655 39.959C222.45 39.9297 222.201 39.9053 221.908 39.8857C221.625 39.8564 221.366 39.8418 221.132 39.8418C220.536 39.8418 220.018 39.9199 219.579 40.0762C219.149 40.2227 218.788 40.4424 218.495 40.7354C218.212 41.0283 217.997 41.3848 217.85 41.8047C217.714 42.2246 217.636 42.7031 217.616 43.2402L216.766 42.9766C216.766 41.9512 216.869 41.0088 217.074 40.1494C217.279 39.2803 217.577 38.5234 217.968 37.8789C218.368 37.2344 218.856 36.7363 219.432 36.3848C220.009 36.0332 220.668 35.8574 221.41 35.8574C221.644 35.8574 221.884 35.877 222.128 35.916C222.372 35.9453 222.572 35.9893 222.728 36.0479Z" fill="#5FB2FF"/>
<path d="M262.472 48.543V29.5H266.72V52H262.897L262.472 48.543ZM252.452 44.2656V43.958C252.452 42.7471 252.589 41.6484 252.863 40.6621C253.136 39.666 253.536 38.8115 254.064 38.0986C254.591 37.3857 255.24 36.834 256.012 36.4434C256.783 36.0527 257.662 35.8574 258.649 35.8574C259.576 35.8574 260.387 36.0527 261.08 36.4434C261.783 36.834 262.379 37.3906 262.867 38.1133C263.365 38.8262 263.766 39.6709 264.069 40.6475C264.371 41.6143 264.591 42.6738 264.728 43.8262V44.5C264.591 45.6035 264.371 46.6289 264.069 47.5762C263.766 48.5234 263.365 49.3535 262.867 50.0664C262.379 50.7695 261.783 51.3164 261.08 51.707C260.377 52.0977 259.557 52.293 258.619 52.293C257.633 52.293 256.754 52.0928 255.983 51.6924C255.221 51.292 254.576 50.7305 254.049 50.0078C253.531 49.2852 253.136 48.4355 252.863 47.459C252.589 46.4824 252.452 45.418 252.452 44.2656ZM256.671 43.958V44.2656C256.671 44.9199 256.72 45.5303 256.818 46.0967C256.925 46.6631 257.096 47.166 257.33 47.6055C257.574 48.0352 257.887 48.3721 258.268 48.6162C258.658 48.8506 259.132 48.9678 259.689 48.9678C260.411 48.9678 261.007 48.8066 261.476 48.4844C261.945 48.1523 262.301 47.6982 262.545 47.1221C262.799 46.5459 262.946 45.8818 262.985 45.1299V43.2109C262.955 42.5957 262.867 42.0439 262.721 41.5557C262.584 41.0576 262.379 40.6328 262.106 40.2812C261.842 39.9297 261.51 39.6563 261.11 39.4609C260.719 39.2656 260.255 39.168 259.718 39.168C259.171 39.168 258.702 39.2949 258.312 39.5488C257.921 39.793 257.604 40.1299 257.36 40.5596C257.125 40.9893 256.949 41.4971 256.832 42.083C256.725 42.6592 256.671 43.2842 256.671 43.958ZM281.511 52.293C280.28 52.293 279.177 52.0977 278.2 51.707C277.224 51.3066 276.394 50.7549 275.71 50.0518C275.036 49.3486 274.519 48.5332 274.157 47.6055C273.796 46.668 273.615 45.6719 273.615 44.6172V44.0312C273.615 42.8301 273.786 41.7314 274.128 40.7354C274.47 39.7393 274.958 38.875 275.593 38.1426C276.237 37.4102 277.019 36.8486 277.937 36.458C278.855 36.0576 279.89 35.8574 281.042 35.8574C282.165 35.8574 283.161 36.043 284.03 36.4141C284.899 36.7852 285.627 37.3125 286.213 37.9961C286.809 38.6797 287.258 39.5 287.561 40.457C287.863 41.4043 288.015 42.459 288.015 43.6211V45.3789L275.417 45.3789V42.5664L283.869 42.5664V42.2441C283.869 41.6582 283.762 41.1357 283.547 40.6768C283.342 40.208 283.029 39.8369 282.609 39.5635C282.189 39.29 281.652 39.1533 280.998 39.1533C280.441 39.1533 279.963 39.2754 279.563 39.5195C279.162 39.7637 278.835 40.1055 278.581 40.5449C278.337 40.9844 278.151 41.502 278.024 42.0977C277.907 42.6836 277.849 43.3281 277.849 44.0312V44.6172C277.849 45.252 277.937 45.8379 278.112 46.375C278.298 46.9121 278.557 47.376 278.889 47.7666C279.23 48.1572 279.641 48.46 280.119 48.6748C280.607 48.8896 281.159 48.9971 281.774 48.9971C282.536 48.9971 283.244 48.8506 283.898 48.5576C284.563 48.2549 285.134 47.8008 285.612 47.1953L287.663 49.4219C287.331 49.9004 286.877 50.3594 286.301 50.7988C285.734 51.2383 285.051 51.5996 284.25 51.8828C283.449 52.1563 282.536 52.293 281.511 52.293ZM299.803 48.9238L303.318 36.1504H307.727L302.381 52H299.715L299.803 48.9238ZM297.386 36.1504L300.916 48.9385L300.989 52H298.308L292.962 36.1504H297.386ZM322.386 47.6201C322.386 47.3174 322.298 47.0439 322.123 46.7998C321.947 46.5557 321.62 46.3311 321.141 46.126C320.672 45.9111 319.994 45.7158 319.105 45.54C318.304 45.3643 317.557 45.1445 316.864 44.8809C316.18 44.6074 315.585 44.2803 315.077 43.8994C314.579 43.5186 314.188 43.0693 313.905 42.5518C313.622 42.0244 313.48 41.4238 313.48 40.75C313.48 40.0859 313.622 39.4609 313.905 38.875C314.198 38.2891 314.613 37.7715 315.15 37.3223C315.697 36.8633 316.361 36.5068 317.142 36.2529C317.933 35.9893 318.822 35.8574 319.808 35.8574C321.185 35.8574 322.367 36.0771 323.353 36.5166C324.349 36.9561 325.111 37.5615 325.638 38.333C326.175 39.0947 326.444 39.9639 326.444 40.9404H322.225C322.225 40.5303 322.137 40.1641 321.962 39.8418C321.796 39.5098 321.532 39.251 321.171 39.0654C320.819 38.8701 320.36 38.7725 319.794 38.7725C319.325 38.7725 318.92 38.8555 318.578 39.0215C318.236 39.1777 317.972 39.3926 317.787 39.666C317.611 39.9297 317.523 40.2227 317.523 40.5449C317.523 40.7891 317.572 41.0088 317.67 41.2041C317.777 41.3896 317.948 41.5605 318.182 41.7168C318.417 41.873 318.719 42.0195 319.09 42.1563C319.471 42.2832 319.94 42.4004 320.497 42.5078C321.639 42.7422 322.66 43.0498 323.558 43.4307C324.457 43.8018 325.17 44.3096 325.697 44.9541C326.224 45.5889 326.488 46.4238 326.488 47.459C326.488 48.1621 326.332 48.8066 326.019 49.3926C325.707 49.9785 325.257 50.4912 324.672 50.9307C324.086 51.3604 323.382 51.6973 322.562 51.9414C321.752 52.1758 320.839 52.293 319.823 52.293C318.348 52.293 317.098 52.0293 316.073 51.502C315.057 50.9746 314.286 50.3057 313.758 49.4951C313.241 48.6748 312.982 47.835 312.982 46.9756H316.981C317.001 47.5518 317.147 48.0156 317.421 48.3672C317.704 48.7188 318.06 48.9727 318.49 49.1289C318.929 49.2852 319.403 49.3633 319.911 49.3633C320.458 49.3633 320.912 49.29 321.273 49.1436C321.634 48.9873 321.908 48.7822 322.093 48.5283C322.289 48.2646 322.386 47.9619 322.386 47.6201Z" fill="white"/>
</svg>
